Kent (#10.17)                     Aired 4/14/2011

Clark is shocked to find a mirror box in the barn. Clark Luthor surprises him and sends Clark Kent back to the alternate reality where Clark runs into a very angry Jonathan Kent...

General
Complete name                    : Smallville S10E17 HDTV_JHW.mp4
Format                           : MPEG-4
Format profile                   : Base Media / Version 2
Codec ID                         : mp42
File size                        : 383 MiB
Duration                         : 41mn 37s
Overall bit rate                 : 1 286 Kbps
Encoded date                     : UTC 2011-04-15 05:23:32
Tagged date                      : UTC 2011-04-15 05:23:32
Writing library                  : AVS 

Video
ID                               : 1
Format                           : AVC
Format/Info                      : Advanced Video Codec
Format profile                   : Main@L5.1
Format settings, CABAC           : Yes
Format settings, ReFrames        : 2 frames
Format settings, GOP             : M=2, N=3
Codec ID                         : avc1
Codec ID/Info                    : Advanced Video Coding
Duration                         : 41mn 37s
Bit rate mode                    : Variable
Bit rate                         : 1 169 Kbps
Width                            : 1 280 pixels
Height                           : 720 pixels
Display aspect ratio             : 16:9
Frame rate mode                  : Constant
Frame rate                       : 29.970 fps
Color space                      : YUV
Chroma subsampling               : 4:2:0
Bit depth                        : 8 bits
Scan type                        : Progressive
Bits/(Pixel*Frame)               : 0.042
Stream size                      : 348 MiB (91%)
Language                         : English
Encoded date                     : UTC 2011-04-15 05:23:32
Tagged date                      : UTC 2011-04-15 05:23:32

Audio
ID                               : 2
Format                           : AAC
Format/Info                      : Advanced Audio Codec
Format profile                   : LC
Codec ID                         : 40
Duration                         : 41mn 37s
Bit rate mode                    : Constant
Bit rate                         : 108 Kbps
Nominal bit rate                 : 96.0 Kbps
Channel(s)                       : 2 channels
Channel positions                : Front: L R
Sampling rate                    : 48.0 KHz
Compression mode                 : Lossy
Stream size                      : 32.1 MiB (8%)
Language                         : English
Encoded date                     : UTC 2011-04-15 05:23:32
Tagged date                      : UTC 2011-04-15 05:23:32
 
http://img843.imageshack.us/img843/3567/vlcsnap2011041601h26m32.png 
http://img826.imageshack.us/img826/8849/vlcsnap2011041601h28m13.png 
http://img269.imageshack.us/img269/3502/vlcsnap2011041601h33m19.png 
http://img27.imageshack.us/img27/7448/vlcsnap2011041601h36m44.png